# Blender v2.69 (sub 0) OBJ File: ''
# www.blender.org
mtllib sphere.mtl
o cube
v -0.382683 50.923878 0.000000
v -0.707107 50.707108 0.000000
v -0.923880 50.382683 0.000000
v -1.000000 50.000000 0.000000
v -0.923880 49.617317 0.000000
v -0.707107 49.292892 0.000000
v -0.382683 49.076122 0.000000
v -0.353553 50.923878 -0.146447
v -0.653281 50.707108 -0.270598
v -0.853553 50.382683 -0.353553
v -0.923880 50.000000 -0.382683
v -0.853553 49.617317 -0.353553
v -0.653281 49.292892 -0.270598
v -0.353553 49.076122 -0.146447
v -0.270598 50.923878 -0.270598
v -0.500000 50.707108 -0.500000
v -0.653281 50.382683 -0.653281
v -0.707107 50.000000 -0.707107
v -0.653281 49.617317 -0.653281
v -0.500000 49.292892 -0.500000
v -0.270598 49.076122 -0.270598
v -0.000000 49.000000 0.000000
v -0.146447 50.923878 -0.353553
v -0.270598 50.707108 -0.653281
v -0.353553 50.382683 -0.853553
v -0.382683 50.000000 -0.923879
v -0.353553 49.617317 -0.853553
v -0.270598 49.292892 -0.653281
v -0.146447 49.076122 -0.353553
v -0.000000 50.923878 -0.382683
v -0.000000 50.707108 -0.707107
v -0.000000 50.382683 -0.923879
v -0.000000 50.000000 -1.000000
v -0.000000 49.617317 -0.923879
v -0.000000 49.292892 -0.707107
v -0.000000 49.076122 -0.382683
v -0.000000 51.000000 0.000000
v 0.146446 50.923878 -0.353553
v 0.270598 50.707108 -0.653281
v 0.353553 50.382683 -0.853553
v 0.382683 50.000000 -0.923879
v 0.353553 49.617317 -0.853553
v 0.270598 49.292892 -0.653281
v 0.146446 49.076122 -0.353553
v 0.270598 50.923878 -0.270598
v 0.500000 50.707108 -0.500000
v 0.653281 50.382683 -0.653281
v 0.707106 50.000000 -0.707106
v 0.653281 49.617317 -0.653281
v 0.500000 49.292892 -0.500000
v 0.270598 49.076122 -0.270598
v 0.353553 50.923878 -0.146446
v 0.653281 50.707108 -0.270598
v 0.853553 50.382683 -0.353553
v 0.923879 50.000000 -0.382683
v 0.853553 49.617317 -0.353553
v 0.653281 49.292892 -0.270598
v 0.353553 49.076122 -0.146446
v 0.382683 50.923878 0.000000
v 0.707106 50.707108 0.000000
v 0.923879 50.382683 0.000000
v 0.999999 50.000000 0.000000
v 0.923879 49.617317 0.000000
v 0.707106 49.292892 0.000000
v 0.382683 49.076122 0.000000
v 0.353553 50.923878 0.146447
v 0.653281 50.707108 0.270598
v 0.853553 50.382683 0.353553
v 0.923879 50.000000 0.382683
v 0.853553 49.617317 0.353553
v 0.653281 49.292892 0.270598
v 0.353553 49.076122 0.146447
v 0.270598 50.923878 0.270598
v 0.500000 50.707108 0.500000
v 0.653281 50.382683 0.653281
v 0.707106 50.000000 0.707107
v 0.653281 49.617317 0.653281
v 0.500000 49.292892 0.500000
v 0.270598 49.076122 0.270598
v 0.146446 50.923878 0.353553
v 0.270598 50.707108 0.653281
v 0.353553 50.382683 0.853553
v 0.382683 50.000000 0.923879
v 0.353553 49.617317 0.853553
v 0.270598 49.292892 0.653281
v 0.146446 49.076122 0.353553
v -0.000000 50.923878 0.382683
v -0.000000 50.707108 0.707107
v -0.000000 50.382683 0.923879
v -0.000000 50.000000 0.999999
v -0.000000 49.617317 0.923879
v -0.000000 49.292892 0.707107
v -0.000000 49.076122 0.382683
v -0.146447 50.923878 0.353553
v -0.270598 50.707108 0.653281
v -0.353554 50.382683 0.853553
v -0.382683 50.000000 0.923879
v -0.353554 49.617317 0.853553
v -0.270598 49.292892 0.653281
v -0.146447 49.076122 0.353553
v -0.270598 50.923878 0.270598
v -0.500000 50.707108 0.500000
v -0.653281 50.382683 0.653281
v -0.707107 50.000000 0.707106
v -0.653281 49.617317 0.653281
v -0.500000 49.292892 0.500000
v -0.270598 49.076122 0.270598
v -0.353553 50.923878 0.146446
v -0.653281 50.707108 0.270598
v -0.853553 50.382683 0.353553
v -0.923879 50.000000 0.382683
v -0.853553 49.617317 0.353553
v -0.653281 49.292892 0.270598
v -0.353553 49.076122 0.146446
vt 0.000000 0.000000
vt 1.000000 0.000000
vt 0.000000 1.000000
vt 1.000000 1.000000
vn -0.552202 -0.826437 -0.109885
vn -0.820328 -0.548123 -0.163169
vn -0.962637 -0.191481 -0.191481
vn -0.962637 0.191481 -0.191480
vn -0.820326 0.548122 -0.163181
vn -0.552205 0.826444 -0.109818
vn -0.468135 -0.826441 -0.312802
vn -0.695439 -0.548122 -0.464679
vn -0.816083 -0.191481 -0.545293
vn -0.816084 0.191481 -0.545291
vn -0.695438 0.548121 -0.464682
vn -0.468137 0.826444 -0.312791
vn -0.312797 -0.826439 -0.468141
vn -0.464686 -0.548132 -0.695426
vn -0.545292 -0.191481 -0.816083
vn -0.545284 0.191479 -0.816089
vn -0.464679 0.548124 -0.695437
vn -0.312800 0.826445 -0.468129
vn -0.109839 -0.826436 -0.552212
vn -0.163169 -0.548111 -0.820336
vn -0.191479 -0.191480 -0.962638
vn -0.191481 0.191481 -0.962637
vn -0.163174 0.548126 -0.820324
vn -0.109842 0.826454 -0.552186
vn 0.109839 -0.826436 -0.552212
vn 0.163172 -0.548119 -0.820330
vn 0.191479 -0.191479 -0.962638
vn 0.191476 0.191476 -0.962639
vn 0.163174 0.548126 -0.820324
vn 0.109839 0.826437 -0.552211
vn 0.312796 -0.826434 -0.468151
vn 0.464677 -0.548122 -0.695440
vn 0.545292 -0.191481 -0.816083
vn 0.545285 0.191479 -0.816089
vn 0.464675 0.548119 -0.695444
vn 0.312797 0.826438 -0.468143
vn 0.468138 -0.826445 -0.312787
vn 0.695440 -0.548123 -0.464676
vn 0.816086 -0.191481 -0.545288
vn 0.816087 0.191481 -0.545286
vn 0.695442 0.548125 -0.464671
vn 0.468137 0.826444 -0.312791
vn 0.552203 -0.826440 -0.109852
vn 0.820329 -0.548124 -0.163160
vn 0.962637 -0.191481 -0.191481
vn 0.962636 0.191481 -0.191486
vn 0.820327 0.548122 -0.163174
vn 0.552203 0.826440 -0.109854
vn 0.552205 -0.826443 0.109820
vn 0.820328 -0.548123 0.163169
vn 0.962636 -0.191480 0.191488
vn 0.962637 0.191480 0.191481
vn 0.820328 0.548123 0.163168
vn 0.552203 0.826441 0.109854
vn 0.468135 -0.826441 0.312802
vn 0.695428 -0.548113 0.464707
vn 0.816083 -0.191480 0.545293
vn 0.816081 0.191480 0.545295
vn 0.695440 0.548123 0.464676
vn 0.468137 0.826444 0.312791
vn 0.312797 -0.826439 0.468141
vn 0.464675 -0.548118 0.695445
vn 0.545291 -0.191481 0.816084
vn 0.545290 0.191481 0.816085
vn 0.464677 0.548121 0.695441
vn 0.312800 0.826445 0.468129
vn 0.109839 -0.826436 0.552212
vn 0.163174 -0.548127 0.820324
vn 0.191479 -0.191479 0.962638
vn 0.191480 0.191481 0.962637
vn 0.163176 0.548132 0.820320
vn 0.109841 0.826445 0.552198
vn -0.109840 -0.826436 0.552212
vn -0.163175 -0.548126 0.820324
vn -0.191484 -0.191484 0.962636
vn -0.191481 0.191481 0.962637
vn -0.163178 0.548138 0.820316
vn -0.109841 0.826445 0.552198
vn -0.312798 -0.826441 0.468138
vn -0.464677 -0.548122 0.695441
vn -0.545291 -0.191481 0.816084
vn -0.545285 0.191479 0.816089
vn -0.464675 0.548119 0.695445
vn -0.312797 0.826438 0.468143
vn -0.468138 -0.826445 0.312788
vn -0.695439 -0.548121 0.464680
vn -0.816086 -0.191481 0.545288
vn -0.816087 0.191481 0.545287
vn -0.695443 0.548124 0.464671
vn -0.468137 0.826444 0.312791
vn -0.194949 -0.980049 -0.038717
vn -0.194948 0.980047 -0.038758
vn -0.165268 -0.980042 -0.110471
vn -0.165269 0.980049 -0.110405
vn -0.110430 -0.980051 -0.165240
vn -0.110429 0.980049 -0.165257
vn -0.038778 -0.980051 -0.194926
vn -0.038778 0.980049 -0.194938
vn 0.038778 -0.980045 -0.194958
vn 0.038778 0.980051 -0.194926
vn 0.110430 -0.980049 -0.165257
vn 0.110429 0.980046 -0.165273
vn 0.165269 -0.980048 -0.110421
vn 0.165269 0.980049 -0.110405
vn 0.194948 -0.980048 -0.038750
vn 0.194948 0.980047 -0.038758
vn 0.194948 -0.980048 0.038750
vn 0.194948 0.980047 0.038758
vn 0.165269 -0.980048 0.110421
vn 0.165269 0.980046 0.110438
vn 0.110429 -0.980049 0.165257
vn 0.110429 0.980049 0.165257
vn 0.038778 -0.980048 0.194942
vn 0.038778 0.980050 0.194933
vn -0.038778 -0.980051 0.194926
vn -0.038778 0.980045 0.194958
vn -0.110429 -0.980046 0.165273
vn -0.110429 0.980046 0.165273
vn -0.165269 -0.980046 0.110438
vn -0.165270 0.980049 0.110405
vn -0.194948 -0.980048 0.038737
vn -0.552203 -0.826440 0.109852
vn -0.820327 -0.548122 0.163178
vn -0.962637 -0.191481 0.191482
vn -0.962637 0.191481 0.191481
vn -0.820327 0.548122 0.163175
vn -0.552203 0.826440 0.109854
vn -0.194948 0.980047 0.038758
vn -0.552204 -0.826442 -0.109836
vn -0.820327 -0.548122 -0.163174
vn -0.962637 -0.191481 -0.191480
vn -0.962637 0.191481 -0.191481
vn -0.820328 0.548123 -0.163169
vn -0.552203 0.826441 -0.109852
vn -0.468137 -0.826444 -0.312791
vn -0.695438 -0.548121 -0.464682
vn -0.816090 -0.191482 -0.545282
vn -0.816084 0.191481 -0.545290
vn -0.695439 0.548122 -0.464679
vn -0.468135 0.826441 -0.312802
vn -0.312797 -0.826438 -0.468143
vn -0.464677 -0.548122 -0.695441
vn -0.545292 -0.191482 -0.816083
vn -0.545289 0.191480 -0.816085
vn -0.464675 0.548119 -0.695445
vn -0.312797 0.826439 -0.468141
vn -0.109840 -0.826443 -0.552201
vn -0.163173 -0.548123 -0.820326
vn -0.191482 -0.191482 -0.962637
vn -0.191478 0.191478 -0.962638
vn -0.163173 0.548122 -0.820327
vn -0.109839 0.826432 -0.552219
vn 0.109842 -0.826454 -0.552186
vn 0.163173 -0.548123 -0.820326
vn 0.191484 -0.191484 -0.962636
vn 0.191483 0.191483 -0.962636
vn 0.163174 0.548123 -0.820327
vn 0.109841 0.826444 -0.552201
vn 0.312797 -0.826438 -0.468143
vn 0.464679 -0.548124 -0.695437
vn 0.545291 -0.191481 -0.816083
vn 0.545292 0.191481 -0.816083
vn 0.464686 0.548132 -0.695427
vn 0.312793 0.826426 -0.468167
vn 0.468137 -0.826444 -0.312792
vn 0.695438 -0.548121 -0.464682
vn 0.816087 -0.191481 -0.545287
vn 0.816081 0.191480 -0.545295
vn 0.695433 0.548118 -0.464693
vn 0.468135 0.826441 -0.312802
vn 0.552204 -0.826442 -0.109836
vn 0.820327 -0.548122 -0.163174
vn 0.962637 -0.191480 -0.191480
vn 0.962638 0.191480 -0.191478
vn 0.820328 0.548123 -0.163169
vn 0.552201 0.826437 -0.109885
vn 0.552203 -0.826440 0.109854
vn 0.820327 -0.548122 0.163174
vn 0.962638 -0.191481 0.191477
vn 0.962637 0.191481 0.191481
vn 0.820328 0.548122 0.163169
vn 0.552206 0.826443 0.109820
vn 0.468137 -0.826444 0.312791
vn 0.695445 -0.548126 0.464666
vn 0.816084 -0.191480 0.545291
vn 0.816086 0.191481 0.545288
vn 0.695440 0.548122 0.464679
vn 0.468136 0.826440 0.312802
vn 0.312803 -0.826452 0.468115
vn 0.464681 -0.548126 0.695434
vn 0.545292 -0.191481 0.816083
vn 0.545289 0.191480 0.816085
vn 0.464678 0.548122 0.695440
vn 0.312797 0.826439 0.468141
vn 0.109841 -0.826450 0.552192
vn 0.163173 -0.548122 0.820327
vn 0.191482 -0.191482 0.962637
vn 0.191478 0.191478 0.962638
vn 0.163170 0.548114 0.820333
vn 0.109839 0.826435 0.552214
vn -0.109840 -0.826441 0.552205
vn -0.163172 -0.548116 0.820331
vn -0.191481 -0.191480 0.962637
vn -0.191477 0.191477 0.962639
vn -0.163174 0.548122 0.820327
vn -0.109840 0.826436 0.552212
vn -0.312797 -0.826438 0.468143
vn -0.464680 -0.548123 0.695438
vn -0.545288 -0.191480 0.816086
vn -0.545292 0.191481 0.816083
vn -0.464684 0.548128 0.695431
vn -0.312802 0.826452 0.468115
vn -0.468137 -0.826444 0.312791
vn -0.695438 -0.548121 0.464682
vn -0.816084 -0.191480 0.545291
vn -0.816080 0.191480 0.545297
vn -0.695434 0.548117 0.464693
vn -0.468140 0.826449 0.312772
vn -0.552204 -0.826442 0.109836
vn -0.820327 -0.548123 0.163169
vn -0.962637 -0.191481 0.191481
vn -0.962636 0.191481 0.191485
vn -0.820325 0.548121 0.163186
vn -0.552205 0.826443 0.109820
usemtl cube
s off
f 7/1/1 6/2/1 14/3/1
f 6/1/2 5/2/2 13/3/2
f 5/1/3 4/2/3 12/3/3
f 4/1/4 3/2/4 11/3/4
f 3/1/5 2/2/5 10/3/5
f 2/1/6 1/2/6 9/3/6
f 14/1/7 13/2/7 21/3/7
f 13/1/8 12/2/8 20/3/8
f 12/1/9 11/2/9 19/3/9
f 11/1/10 10/2/10 18/3/10
f 10/1/11 9/2/11 17/3/11
f 9/1/12 8/2/12 16/3/12
f 21/1/13 20/2/13 29/3/13
f 20/1/14 19/2/14 28/3/14
f 19/1/15 18/2/15 27/3/15
f 18/1/16 17/2/16 26/3/16
f 17/1/17 16/2/17 25/3/17
f 16/1/18 15/2/18 24/3/18
f 29/1/19 28/2/19 36/3/19
f 28/1/20 27/2/20 35/3/20
f 27/1/21 26/2/21 34/3/21
f 26/1/22 25/2/22 33/3/22
f 25/1/23 24/2/23 32/3/23
f 24/1/24 23/2/24 31/3/24
f 36/1/25 35/2/25 44/3/25
f 35/1/26 34/2/26 43/3/26
f 34/1/27 33/2/27 42/3/27
f 33/1/28 32/2/28 41/3/28
f 32/1/29 31/2/29 40/3/29
f 31/1/30 30/2/30 39/3/30
f 44/1/31 43/2/31 51/3/31
f 43/1/32 42/2/32 50/3/32
f 42/1/33 41/2/33 49/3/33
f 41/1/34 40/2/34 48/3/34
f 40/1/35 39/2/35 47/3/35
f 39/1/36 38/2/36 46/3/36
f 51/1/37 50/2/37 58/3/37
f 50/1/38 49/2/38 57/3/38
f 49/1/39 48/2/39 56/3/39
f 48/1/40 47/2/40 55/3/40
f 47/1/41 46/2/41 54/3/41
f 46/1/42 45/2/42 53/3/42
f 58/1/43 57/2/43 65/3/43
f 57/1/44 56/2/44 64/3/44
f 56/1/45 55/2/45 63/3/45
f 55/1/46 54/2/46 62/3/46
f 54/1/47 53/2/47 61/3/47
f 53/1/48 52/2/48 60/3/48
f 65/1/49 64/2/49 72/3/49
f 64/1/50 63/2/50 71/3/50
f 63/1/51 62/2/51 70/3/51
f 62/1/52 61/2/52 69/3/52
f 61/1/53 60/2/53 68/3/53
f 60/1/54 59/2/54 67/3/54
f 72/1/55 71/2/55 79/3/55
f 71/1/56 70/2/56 78/3/56
f 70/1/57 69/2/57 77/3/57
f 69/1/58 68/2/58 76/3/58
f 68/1/59 67/2/59 75/3/59
f 67/1/60 66/2/60 74/3/60
f 79/1/61 78/2/61 86/3/61
f 78/1/62 77/2/62 85/3/62
f 77/1/63 76/2/63 84/3/63
f 76/1/64 75/2/64 83/3/64
f 75/1/65 74/2/65 82/3/65
f 74/1/66 73/2/66 81/3/66
f 86/1/67 85/2/67 93/3/67
f 85/1/68 84/2/68 92/3/68
f 84/1/69 83/2/69 91/3/69
f 83/1/70 82/2/70 90/3/70
f 82/1/71 81/2/71 89/3/71
f 81/1/72 80/2/72 88/3/72
f 93/1/73 92/2/73 100/3/73
f 92/1/74 91/2/74 99/3/74
f 91/1/75 90/2/75 98/3/75
f 90/1/76 89/2/76 97/3/76
f 89/1/77 88/2/77 96/3/77
f 88/1/78 87/2/78 95/3/78
f 100/1/79 99/2/79 107/3/79
f 99/1/80 98/2/80 106/3/80
f 98/1/81 97/2/81 105/3/81
f 97/1/82 96/2/82 104/3/82
f 96/1/83 95/2/83 103/3/83
f 95/1/84 94/2/84 102/3/84
f 107/1/85 106/2/85 114/3/85
f 106/1/86 105/2/86 113/3/86
f 105/1/87 104/2/87 112/3/87
f 104/1/88 103/2/88 111/3/88
f 103/1/89 102/2/89 110/3/89
f 102/1/90 101/2/90 109/3/90
f 22/1/91 7/2/91 14/4/91
f 1/1/92 37/2/92 8/4/92
f 22/1/93 14/2/93 21/4/93
f 8/1/94 37/2/94 15/4/94
f 22/1/95 21/2/95 29/4/95
f 15/1/96 37/2/96 23/4/96
f 22/1/97 29/2/97 36/4/97
f 23/1/98 37/2/98 30/4/98
f 22/1/99 36/2/99 44/4/99
f 30/1/100 37/2/100 38/4/100
f 22/1/101 44/2/101 51/4/101
f 38/1/102 37/2/102 45/4/102
f 22/1/103 51/2/103 58/4/103
f 45/1/104 37/2/104 52/4/104
f 22/1/105 58/2/105 65/4/105
f 52/1/106 37/2/106 59/4/106
f 22/1/107 65/2/107 72/4/107
f 59/1/108 37/2/108 66/4/108
f 22/1/109 72/2/109 79/4/109
f 66/1/110 37/2/110 73/4/110
f 22/1/111 79/2/111 86/4/111
f 73/1/112 37/2/112 80/4/112
f 22/1/113 86/2/113 93/4/113
f 80/1/114 37/2/114 87/4/114
f 22/1/115 93/2/115 100/4/115
f 87/1/116 37/2/116 94/4/116
f 22/1/117 100/2/117 107/4/117
f 94/1/118 37/2/118 101/4/118
f 22/1/119 107/2/119 114/4/119
f 101/1/120 37/2/120 108/4/120
f 22/1/121 114/2/121 7/4/121
f 114/1/122 113/2/122 7/3/122
f 113/1/123 112/2/123 5/4/123
f 112/1/124 111/2/124 5/3/124
f 111/1/125 110/2/125 4/3/125
f 110/1/126 109/2/126 3/3/126
f 109/1/127 108/2/127 2/3/127
f 108/1/128 37/2/128 1/4/128
f 6/2/129 13/4/129 14/3/129
f 5/2/130 12/4/130 13/3/130
f 4/2/131 11/4/131 12/3/131
f 3/2/132 10/4/132 11/3/132
f 2/2/133 9/4/133 10/3/133
f 1/2/134 8/4/134 9/3/134
f 13/2/135 20/4/135 21/3/135
f 12/2/136 19/4/136 20/3/136
f 11/2/137 18/4/137 19/3/137
f 10/2/138 17/4/138 18/3/138
f 9/2/139 16/4/139 17/3/139
f 8/2/140 15/4/140 16/3/140
f 20/2/141 28/4/141 29/3/141
f 19/2/142 27/4/142 28/3/142
f 18/2/143 26/4/143 27/3/143
f 17/2/144 25/4/144 26/3/144
f 16/2/145 24/4/145 25/3/145
f 15/2/146 23/4/146 24/3/146
f 28/2/147 35/4/147 36/3/147
f 27/2/148 34/4/148 35/3/148
f 26/2/149 33/4/149 34/3/149
f 25/2/150 32/4/150 33/3/150
f 24/2/151 31/4/151 32/3/151
f 23/2/152 30/4/152 31/3/152
f 35/2/153 43/4/153 44/3/153
f 34/2/154 42/4/154 43/3/154
f 33/2/155 41/4/155 42/3/155
f 32/2/156 40/4/156 41/3/156
f 31/2/157 39/4/157 40/3/157
f 30/2/158 38/4/158 39/3/158
f 43/2/159 50/4/159 51/3/159
f 42/2/160 49/4/160 50/3/160
f 41/2/161 48/4/161 49/3/161
f 40/2/162 47/4/162 48/3/162
f 39/2/163 46/4/163 47/3/163
f 38/2/164 45/4/164 46/3/164
f 50/2/165 57/4/165 58/3/165
f 49/2/166 56/4/166 57/3/166
f 48/2/167 55/4/167 56/3/167
f 47/2/168 54/4/168 55/3/168
f 46/2/169 53/4/169 54/3/169
f 45/2/170 52/4/170 53/3/170
f 57/2/171 64/4/171 65/3/171
f 56/2/172 63/4/172 64/3/172
f 55/2/173 62/4/173 63/3/173
f 54/2/174 61/4/174 62/3/174
f 53/2/175 60/4/175 61/3/175
f 52/2/176 59/4/176 60/3/176
f 64/2/177 71/4/177 72/3/177
f 63/2/178 70/4/178 71/3/178
f 62/2/179 69/4/179 70/3/179
f 61/2/180 68/4/180 69/3/180
f 60/2/181 67/4/181 68/3/181
f 59/2/182 66/4/182 67/3/182
f 71/2/183 78/4/183 79/3/183
f 70/2/184 77/4/184 78/3/184
f 69/2/185 76/4/185 77/3/185
f 68/2/186 75/4/186 76/3/186
f 67/2/187 74/4/187 75/3/187
f 66/2/188 73/4/188 74/3/188
f 78/2/189 85/4/189 86/3/189
f 77/2/190 84/4/190 85/3/190
f 76/2/191 83/4/191 84/3/191
f 75/2/192 82/4/192 83/3/192
f 74/2/193 81/4/193 82/3/193
f 73/2/194 80/4/194 81/3/194
f 85/2/195 92/4/195 93/3/195
f 84/2/196 91/4/196 92/3/196
f 83/2/197 90/4/197 91/3/197
f 82/2/198 89/4/198 90/3/198
f 81/2/199 88/4/199 89/3/199
f 80/2/200 87/4/200 88/3/200
f 92/2/201 99/4/201 100/3/201
f 91/2/202 98/4/202 99/3/202
f 90/2/203 97/4/203 98/3/203
f 89/2/204 96/4/204 97/3/204
f 88/2/205 95/4/205 96/3/205
f 87/2/206 94/4/206 95/3/206
f 99/2/207 106/4/207 107/3/207
f 98/2/208 105/4/208 106/3/208
f 97/2/209 104/4/209 105/3/209
f 96/2/210 103/4/210 104/3/210
f 95/2/211 102/4/211 103/3/211
f 94/2/212 101/4/212 102/3/212
f 106/2/213 113/4/213 114/3/213
f 105/2/214 112/4/214 113/3/214
f 104/2/215 111/4/215 112/3/215
f 103/2/216 110/4/216 111/3/216
f 102/2/217 109/4/217 110/3/217
f 101/2/218 108/4/218 109/3/218
f 113/2/219 6/4/219 7/3/219
f 6/3/220 113/1/220 5/4/220
f 111/2/221 4/4/221 5/3/221
f 110/2/222 3/4/222 4/3/222
f 109/2/223 2/4/223 3/3/223
f 108/2/224 1/4/224 2/3/224
